<mxfile host="app.diagrams.net" modified="2024-03-27T05:54:24.114Z" agent="Mozilla/5.0 (Windows NT 10.0; Win64; x64) AppleWebKit/537.36 (KHTML, like Gecko) Chrome/123.0.0.0 Safari/537.36" etag="vxGw8Oa8gIMafSCocBt6" version="24.1.0" type="device">
  <diagram name="Page-1" id="W-6vFfVcxoVJ260D_sdX">
    <mxGraphModel dx="1050" dy="565" grid="0" gridSize="10" guides="1" tooltips="1" connect="1" arrows="1" fold="1" page="0" pageScale="1" pageWidth="1100" pageHeight="850" math="0" shadow="0">
      <root>
        <mxCell id="0" />
        <mxCell id="1" parent="0" />
        <mxCell id="til1hWUEW-2d2luSCqwh-1" value="" style="rounded=0;whiteSpace=wrap;html=1;fillColor=#f5f5f5;fontColor=#333333;strokeColor=#666666;" parent="1" vertex="1">
          <mxGeometry x="50" y="10" width="960" height="470" as="geometry" />
        </mxCell>
        <mxCell id="til1hWUEW-2d2luSCqwh-2" value="&lt;b&gt;HOME&lt;/b&gt;" style="rounded=0;whiteSpace=wrap;html=1;fillColor=#dae8fc;strokeColor=#6c8ebf;" parent="1" vertex="1">
          <mxGeometry x="70" y="120" width="90" height="50" as="geometry" />
        </mxCell>
        <mxCell id="til1hWUEW-2d2luSCqwh-3" value="&lt;b&gt;Problem Repository&lt;/b&gt;" style="rounded=0;whiteSpace=wrap;html=1;fillColor=#b0e3e6;strokeColor=#0e8088;" parent="1" vertex="1">
          <mxGeometry x="180" y="120" width="130" height="50" as="geometry" />
        </mxCell>
        <mxCell id="til1hWUEW-2d2luSCqwh-4" value="&lt;b&gt;Contest&lt;/b&gt;" style="rounded=0;whiteSpace=wrap;html=1;fillColor=#b0e3e6;strokeColor=#0e8088;" parent="1" vertex="1">
          <mxGeometry x="330" y="120" width="110" height="50" as="geometry" />
        </mxCell>
        <mxCell id="til1hWUEW-2d2luSCqwh-5" value="&lt;b&gt;Knowledge Nexus&lt;/b&gt;" style="rounded=0;whiteSpace=wrap;html=1;fillColor=#b0e3e6;strokeColor=#0e8088;" parent="1" vertex="1">
          <mxGeometry x="470" y="120" width="110" height="50" as="geometry" />
        </mxCell>
        <mxCell id="til1hWUEW-2d2luSCqwh-6" value="&lt;b&gt;Notification&lt;/b&gt;" style="rounded=0;whiteSpace=wrap;html=1;fillColor=#b0e3e6;strokeColor=#0e8088;" parent="1" vertex="1">
          <mxGeometry x="600" y="120" width="110" height="50" as="geometry" />
        </mxCell>
        <mxCell id="til1hWUEW-2d2luSCqwh-7" value="&lt;b&gt;User Profile&lt;/b&gt;" style="rounded=0;whiteSpace=wrap;html=1;fillColor=#b0e3e6;strokeColor=#0e8088;" parent="1" vertex="1">
          <mxGeometry x="730" y="120" width="110" height="50" as="geometry" />
        </mxCell>
        <mxCell id="til1hWUEW-2d2luSCqwh-8" value="&lt;b&gt;Logout&lt;/b&gt;" style="rounded=0;whiteSpace=wrap;html=1;fillColor=#e51400;strokeColor=#B20000;fontColor=#ffffff;" parent="1" vertex="1">
          <mxGeometry x="900" y="410" width="90" height="50" as="geometry" />
        </mxCell>
        <mxCell id="til1hWUEW-2d2luSCqwh-9" value="&lt;h1 style=&quot;margin-top: 0px;&quot;&gt;About Us&lt;/h1&gt;" style="text;html=1;whiteSpace=wrap;overflow=hidden;rounded=0;" parent="1" vertex="1">
          <mxGeometry x="480" y="200" width="130" height="40" as="geometry" />
        </mxCell>
        <mxCell id="til1hWUEW-2d2luSCqwh-11" value="&lt;b&gt;&lt;font style=&quot;font-size: 14px;&quot;&gt;About CodeSphere&lt;/font&gt;&lt;/b&gt;" style="text;html=1;align=center;verticalAlign=middle;whiteSpace=wrap;rounded=0;fillColor=#eeeeee;strokeColor=#36393d;" parent="1" vertex="1">
          <mxGeometry x="220" y="250" width="650" height="120" as="geometry" />
        </mxCell>
        <mxCell id="til1hWUEW-2d2luSCqwh-14" value="&lt;font style=&quot;font-size: 14px;&quot;&gt;&lt;b&gt;&lt;i&gt;CodeSphere - Competitive Programming &amp;amp; Learning Platform&lt;/i&gt;&lt;/b&gt;&lt;/font&gt;" style="rounded=1;whiteSpace=wrap;html=1;fillColor=#b1ddf0;strokeColor=#10739e;" parent="1" vertex="1">
          <mxGeometry x="136" y="35" width="440" height="60" as="geometry" />
        </mxCell>
        <mxCell id="til1hWUEW-2d2luSCqwh-16" value="&lt;b&gt;&lt;font style=&quot;font-size: 14px;&quot;&gt;Contact us&lt;/font&gt;&lt;/b&gt;" style="text;html=1;align=center;verticalAlign=middle;whiteSpace=wrap;rounded=0;" parent="1" vertex="1">
          <mxGeometry x="150" y="410" width="135" height="50" as="geometry" />
        </mxCell>
        <mxCell id="til1hWUEW-2d2luSCqwh-17" value="&lt;b&gt;&lt;font style=&quot;font-size: 14px;&quot;&gt;Links, contact information&lt;/font&gt;&lt;/b&gt;" style="rounded=0;whiteSpace=wrap;html=1;" parent="1" vertex="1">
          <mxGeometry x="265" y="400" width="530" height="50" as="geometry" />
        </mxCell>
        <mxCell id="til1hWUEW-2d2luSCqwh-18" value="&lt;b&gt;&lt;font style=&quot;font-size: 18px;&quot;&gt;IIT&lt;/font&gt;&lt;/b&gt;&lt;div&gt;&lt;b&gt;&lt;font style=&quot;font-size: 14px;&quot;&gt;University of Dhaka&lt;/font&gt;&lt;/b&gt;&lt;/div&gt;" style="rounded=0;whiteSpace=wrap;html=1;fillColor=#0050ef;fontColor=#ffffff;strokeColor=#001DBC;" parent="1" vertex="1">
          <mxGeometry x="854" y="30" width="140" height="50" as="geometry" />
        </mxCell>
        <mxCell id="Juey-6o9gqzUr7a3285N-1" value="&lt;b&gt;LOGO&lt;/b&gt;" style="ellipse;whiteSpace=wrap;html=1;aspect=fixed;fillColor=#b1ddf0;strokeColor=#10739e;" vertex="1" parent="1">
          <mxGeometry x="61" y="25" width="80" height="80" as="geometry" />
        </mxCell>
      </root>
    </mxGraphModel>
  </diagram>
</mxfile>
